<?xml version="1.0" encoding="UTF-8" standalone="no"?>
<!DOCTYPE svg PUBLIC "-//W3C//DTD SVG 1.1//EN"
 "http://www.w3.org/Graphics/SVG/1.1/DTD/svg11.dtd">
<!-- Generated by graphviz version 12.1.1 (20240910.0053)
 -->
<!-- Title: G Pages: 1 -->
<svg width="864pt" height="332pt"
 viewBox="0.00 0.00 864.28 332.00" xmlns="http://www.w3.org/2000/svg" xmlns:xlink="http://www.w3.org/1999/xlink">
<g id="graph0" class="graph" transform="scale(1 1) rotate(0) translate(4 328)">
<title>G</title>
<polygon fill="white" stroke="none" points="-4,4 -4,-328 860.28,-328 860.28,4 -4,4"/>
<!-- :app -->
<g id="node1" class="node">
<title>:app</title>
<ellipse fill="none" stroke="black" cx="517.13" cy="-306" rx="27" ry="18"/>
<text text-anchor="middle" x="517.13" y="-300.95" font-family="Times,serif" font-size="14.00">:app</text>
</g>
<!-- :designsystem -->
<g id="node2" class="node">
<title>:designsystem</title>
<ellipse fill="none" stroke="black" cx="281.13" cy="-90" rx="63.63" ry="18"/>
<text text-anchor="middle" x="281.13" y="-84.95" font-family="Times,serif" font-size="14.00">:designsystem</text>
</g>
<!-- :app&#45;&gt;:designsystem -->
<g id="edge1" class="edge">
<title>:app&#45;&gt;:designsystem</title>
<path fill="none" stroke="black" d="M490.28,-303.1C392.77,-295.55 60.38,-263.9 7.13,-180 -1.44,-166.49 -3.05,-156.34 7.13,-144 32.09,-113.76 135,-100.57 207.33,-94.96"/>
<polygon fill="black" stroke="black" points="207.43,-98.46 217.15,-94.24 206.92,-91.48 207.43,-98.46"/>
</g>
<!-- :core -->
<g id="node3" class="node">
<title>:core</title>
<ellipse fill="none" stroke="black" cx="673.13" cy="-18" rx="29.34" ry="18"/>
<text text-anchor="middle" x="673.13" y="-12.95" font-family="Times,serif" font-size="14.00">:core</text>
</g>
<!-- :app&#45;&gt;:core -->
<g id="edge2" class="edge">
<title>:app&#45;&gt;:core</title>
<path fill="none" stroke="black" d="M543.86,-302.92C607.36,-297.53 765.15,-281.48 808.13,-252 839.06,-230.79 841.98,-216.1 852.13,-180 866.72,-128.15 839.65,-105.08 797.13,-72 771.38,-51.96 736.91,-38.03 710.86,-29.5"/>
<polygon fill="black" stroke="black" points="711.93,-26.17 701.34,-26.52 709.84,-32.85 711.93,-26.17"/>
</g>
<!-- :domain -->
<g id="node4" class="node">
<title>:domain</title>
<ellipse fill="none" stroke="black" cx="673.13" cy="-90" rx="41.63" ry="18"/>
<text text-anchor="middle" x="673.13" y="-84.95" font-family="Times,serif" font-size="14.00">:domain</text>
</g>
<!-- :app&#45;&gt;:domain -->
<g id="edge3" class="edge">
<title>:app&#45;&gt;:domain</title>
<path fill="none" stroke="black" d="M537.72,-294C570.32,-275.35 633.13,-234.22 662.13,-180 672.03,-161.51 674.55,-137.83 674.73,-119.55"/>
<polygon fill="black" stroke="black" points="678.23,-119.61 674.57,-109.67 671.23,-119.72 678.23,-119.61"/>
</g>
<!-- :data -->
<g id="node5" class="node">
<title>:data</title>
<ellipse fill="none" stroke="black" cx="814.13" cy="-162" rx="28.83" ry="18"/>
<text text-anchor="middle" x="814.13" y="-156.95" font-family="Times,serif" font-size="14.00">:data</text>
</g>
<!-- :app&#45;&gt;:data -->
<g id="edge4" class="edge">
<title>:app&#45;&gt;:data</title>
<path fill="none" stroke="black" d="M544.2,-302.98C604.53,-297.95 747.52,-282.99 783.13,-252 800.59,-236.81 808.22,-211.23 811.55,-191.39"/>
<polygon fill="black" stroke="black" points="814.99,-192.08 812.89,-181.7 808.06,-191.13 814.99,-192.08"/>
</g>
<!-- :di -->
<g id="node6" class="node">
<title>:di</title>
<ellipse fill="none" stroke="black" cx="747.13" cy="-234" rx="27" ry="18"/>
<text text-anchor="middle" x="747.13" y="-228.95" font-family="Times,serif" font-size="14.00">:di</text>
</g>
<!-- :app&#45;&gt;:di -->
<g id="edge5" class="edge">
<title>:app&#45;&gt;:di</title>
<path fill="none" stroke="red" stroke-width="2" d="M541.67,-297.92C576.06,-287.94 640.5,-269.06 695.13,-252 700.77,-250.24 706.73,-248.33 712.53,-246.45"/>
<polygon fill="red" stroke="red" stroke-width="2" points="712.06,-250.29 720.48,-243.86 709.89,-243.63 712.06,-250.29"/>
</g>
<!-- :navigation -->
<g id="node7" class="node">
<title>:navigation</title>
<ellipse fill="none" stroke="black" cx="326.13" cy="-234" rx="52.38" ry="18"/>
<text text-anchor="middle" x="326.13" y="-228.95" font-family="Times,serif" font-size="14.00">:navigation</text>
</g>
<!-- :app&#45;&gt;:navigation -->
<g id="edge6" class="edge">
<title>:app&#45;&gt;:navigation</title>
<path fill="none" stroke="black" d="M493.71,-296.42C463.39,-285.3 409.9,-265.7 371.5,-251.62"/>
<polygon fill="black" stroke="black" points="373.11,-248.49 362.52,-248.33 370.7,-255.06 373.11,-248.49"/>
</g>
<!-- :feature:splash -->
<g id="node8" class="node">
<title>:feature:splash</title>
<ellipse fill="none" stroke="black" cx="224.13" cy="-162" rx="64.66" ry="18"/>
<text text-anchor="middle" x="224.13" y="-156.95" font-family="Times,serif" font-size="14.00">:feature:splash</text>
</g>
<!-- :app&#45;&gt;:feature:splash -->
<g id="edge7" class="edge">
<title>:app&#45;&gt;:feature:splash</title>
<path fill="none" stroke="black" d="M490.39,-302.41C432.9,-296.38 299.91,-279.74 265.13,-252 246.23,-236.93 235.68,-211.16 230.04,-191.22"/>
<polygon fill="black" stroke="black" points="233.48,-190.57 227.62,-181.75 226.7,-192.3 233.48,-190.57"/>
</g>
<!-- :feature:home -->
<g id="node9" class="node">
<title>:feature:home</title>
<ellipse fill="none" stroke="black" cx="79.13" cy="-162" rx="62.61" ry="18"/>
<text text-anchor="middle" x="79.13" y="-156.95" font-family="Times,serif" font-size="14.00">:feature:home</text>
</g>
<!-- :app&#45;&gt;:feature:home -->
<g id="edge8" class="edge">
<title>:app&#45;&gt;:feature:home</title>
<path fill="none" stroke="black" d="M490.3,-302.94C439.24,-298.38 325.15,-285.07 235.13,-252 189.45,-235.21 141.47,-205.8 110.99,-185.41"/>
<polygon fill="black" stroke="black" points="113.22,-182.7 102.98,-179.98 109.29,-188.49 113.22,-182.7"/>
</g>
<!-- :feature:forecast -->
<g id="node10" class="node">
<title>:feature:forecast</title>
<ellipse fill="none" stroke="black" cx="416.13" cy="-162" rx="70.8" ry="18"/>
<text text-anchor="middle" x="416.13" y="-156.95" font-family="Times,serif" font-size="14.00">:feature:forecast</text>
</g>
<!-- :app&#45;&gt;:feature:forecast -->
<g id="edge9" class="edge">
<title>:app&#45;&gt;:feature:forecast</title>
<path fill="none" stroke="black" d="M505.94,-289.26C488.77,-265.13 455.75,-218.7 434.89,-189.37"/>
<polygon fill="black" stroke="black" points="437.85,-187.49 429.2,-181.37 432.14,-191.54 437.85,-187.49"/>
</g>
<!-- :feature:favorites -->
<g id="node11" class="node">
<title>:feature:favorites</title>
<ellipse fill="none" stroke="black" cx="579.13" cy="-162" rx="73.87" ry="18"/>
<text text-anchor="middle" x="579.13" y="-156.95" font-family="Times,serif" font-size="14.00">:feature:favorites</text>
</g>
<!-- :app&#45;&gt;:feature:favorites -->
<g id="edge10" class="edge">
<title>:app&#45;&gt;:feature:favorites</title>
<path fill="none" stroke="black" d="M524.37,-288.43C534.85,-264.43 554.38,-219.68 567.07,-190.64"/>
<polygon fill="black" stroke="black" points="570.16,-192.3 570.95,-181.73 563.75,-189.5 570.16,-192.3"/>
</g>
<!-- :domain&#45;&gt;:core -->
<g id="edge11" class="edge">
<title>:domain&#45;&gt;:core</title>
<path fill="none" stroke="red" stroke-width="2" d="M673.13,-71.7C673.13,-64.41 673.13,-55.73 673.13,-47.54"/>
<polygon fill="red" stroke="red" stroke-width="2" points="676.63,-49.13 673.13,-39.13 669.63,-49.13 676.63,-49.13"/>
</g>
<!-- :data&#45;&gt;:core -->
<g id="edge13" class="edge">
<title>:data&#45;&gt;:core</title>
<path fill="none" stroke="black" d="M809.44,-144.07C803.34,-124.66 791.05,-92.85 771.13,-72 753.92,-53.98 729.21,-40.67 708.91,-31.9"/>
<polygon fill="black" stroke="black" points="710.44,-28.75 699.86,-28.18 707.78,-35.22 710.44,-28.75"/>
</g>
<!-- :data&#45;&gt;:domain -->
<g id="edge12" class="edge">
<title>:data&#45;&gt;:domain</title>
<path fill="none" stroke="red" stroke-width="2" d="M792.1,-150.06C770.18,-139.18 736.15,-122.28 710.09,-109.34"/>
<polygon fill="red" stroke="red" stroke-width="2" points="713.05,-106.91 702.53,-105.59 709.93,-113.18 713.05,-106.91"/>
</g>
<!-- :di&#45;&gt;:core -->
<g id="edge14" class="edge">
<title>:di&#45;&gt;:core</title>
<path fill="none" stroke="black" d="M748.04,-215.54C748.92,-184.86 747.54,-119.96 724.13,-72 718.22,-59.88 708.5,-48.73 699.12,-39.82"/>
<polygon fill="black" stroke="black" points="701.64,-37.38 691.85,-33.32 696.97,-42.59 701.64,-37.38"/>
</g>
<!-- :di&#45;&gt;:domain -->
<g id="edge16" class="edge">
<title>:di&#45;&gt;:domain</title>
<path fill="none" stroke="black" d="M738.65,-216.71C726.07,-192.57 702.34,-147.04 687.15,-117.9"/>
<polygon fill="black" stroke="black" points="690.41,-116.57 682.68,-109.32 684.2,-119.81 690.41,-116.57"/>
</g>
<!-- :di&#45;&gt;:data -->
<g id="edge15" class="edge">
<title>:di&#45;&gt;:data</title>
<path fill="none" stroke="red" stroke-width="2" d="M761.02,-218.5C769.97,-209.14 781.81,-196.77 792.04,-186.09"/>
<polygon fill="red" stroke="red" stroke-width="2" points="793.33,-189.8 797.71,-180.16 788.27,-184.96 793.33,-189.8"/>
</g>
<!-- :navigation&#45;&gt;:designsystem -->
<g id="edge17" class="edge">
<title>:navigation&#45;&gt;:designsystem</title>
<path fill="none" stroke="black" d="M320.79,-215.93C315.18,-198.01 306.08,-169.01 298.13,-144 295.55,-135.86 292.72,-127.03 290.13,-118.95"/>
<polygon fill="black" stroke="black" points="293.52,-118.07 287.13,-109.62 286.86,-120.21 293.52,-118.07"/>
</g>
<!-- :navigation&#45;&gt;:feature:splash -->
<g id="edge18" class="edge">
<title>:navigation&#45;&gt;:feature:splash</title>
<path fill="none" stroke="black" d="M303.5,-217.46C289.79,-208.06 272.08,-195.9 256.86,-185.46"/>
<polygon fill="black" stroke="black" points="259.24,-182.85 249.02,-180.08 255.28,-188.62 259.24,-182.85"/>
</g>
<!-- :navigation&#45;&gt;:feature:home -->
<g id="edge19" class="edge">
<title>:navigation&#45;&gt;:feature:home</title>
<path fill="none" stroke="black" d="M286.72,-221.83C245.33,-210.1 179.92,-191.56 133.61,-178.44"/>
<polygon fill="black" stroke="black" points="134.59,-175.08 124.02,-175.72 132.68,-181.81 134.59,-175.08"/>
</g>
<!-- :navigation&#45;&gt;:feature:forecast -->
<g id="edge20" class="edge">
<title>:navigation&#45;&gt;:feature:forecast</title>
<path fill="none" stroke="black" d="M346.56,-217.12C358.16,-208.09 372.9,-196.62 385.83,-186.57"/>
<polygon fill="black" stroke="black" points="387.91,-189.38 393.66,-180.48 383.62,-183.86 387.91,-189.38"/>
</g>
<!-- :navigation&#45;&gt;:feature:favorites -->
<g id="edge21" class="edge">
<title>:navigation&#45;&gt;:feature:favorites</title>
<path fill="none" stroke="black" d="M365.94,-221.99C407.56,-210.47 473.28,-192.29 520.76,-179.15"/>
<polygon fill="black" stroke="black" points="521.64,-182.54 530.35,-176.5 519.77,-175.79 521.64,-182.54"/>
</g>
<!-- :feature:splash&#45;&gt;:designsystem -->
<g id="edge22" class="edge">
<title>:feature:splash&#45;&gt;:designsystem</title>
<path fill="none" stroke="black" d="M237.93,-144.05C244.65,-135.8 252.88,-125.7 260.34,-116.54"/>
<polygon fill="black" stroke="black" points="262.91,-118.93 266.51,-108.96 257.48,-114.51 262.91,-118.93"/>
</g>
<!-- :feature:home&#45;&gt;:designsystem -->
<g id="edge23" class="edge">
<title>:feature:home&#45;&gt;:designsystem</title>
<path fill="none" stroke="black" d="M118.08,-147.5C150.39,-136.31 196.54,-120.31 231.5,-108.2"/>
<polygon fill="black" stroke="black" points="232.23,-111.65 240.53,-105.07 229.94,-105.04 232.23,-111.65"/>
</g>
<!-- :feature:home&#45;&gt;:core -->
<g id="edge24" class="edge">
<title>:feature:home&#45;&gt;:core</title>
<path fill="none" stroke="black" d="M96.72,-144.57C120.14,-123.76 163.8,-88.62 208.13,-72 285.63,-42.94 534.25,-26.57 632.57,-21.09"/>
<polygon fill="black" stroke="black" points="632.49,-24.6 642.28,-20.56 632.11,-17.61 632.49,-24.6"/>
</g>
<!-- :feature:home&#45;&gt;:domain -->
<g id="edge25" class="edge">
<title>:feature:home&#45;&gt;:domain</title>
<path fill="none" stroke="black" d="M124.4,-149.21C132.91,-147.26 141.76,-145.42 150.13,-144 320.94,-115.03 526.01,-99.88 620.61,-93.99"/>
<polygon fill="black" stroke="black" points="620.58,-97.49 630.35,-93.39 620.15,-90.51 620.58,-97.49"/>
</g>
<!-- :feature:forecast&#45;&gt;:designsystem -->
<g id="edge26" class="edge">
<title>:feature:forecast&#45;&gt;:designsystem</title>
<path fill="none" stroke="black" d="M385.84,-145.29C366.55,-135.29 341.37,-122.23 320.54,-111.43"/>
<polygon fill="black" stroke="black" points="322.23,-108.37 311.75,-106.87 319.01,-114.58 322.23,-108.37"/>
</g>
<!-- :feature:forecast&#45;&gt;:core -->
<g id="edge27" class="edge">
<title>:feature:forecast&#45;&gt;:core</title>
<path fill="none" stroke="black" d="M444.62,-145.26C493.18,-118.43 591.61,-64.04 641.95,-36.23"/>
<polygon fill="black" stroke="black" points="643.54,-39.35 650.6,-31.45 640.16,-33.22 643.54,-39.35"/>
</g>
<!-- :feature:forecast&#45;&gt;:domain -->
<g id="edge28" class="edge">
<title>:feature:forecast&#45;&gt;:domain</title>
<path fill="none" stroke="black" d="M463.27,-148.16C510.13,-135.4 581.5,-115.96 627.74,-103.37"/>
<polygon fill="black" stroke="black" points="628.44,-106.8 637.17,-100.8 626.6,-100.05 628.44,-106.8"/>
</g>
<!-- :feature:favorites&#45;&gt;:designsystem -->
<g id="edge29" class="edge">
<title>:feature:favorites&#45;&gt;:designsystem</title>
<path fill="none" stroke="black" d="M527.23,-148.81C474.96,-136.53 394.47,-117.62 339.9,-104.8"/>
<polygon fill="black" stroke="black" points="341.01,-101.47 330.48,-102.59 339.41,-108.28 341.01,-101.47"/>
</g>
<!-- :feature:favorites&#45;&gt;:core -->
<g id="edge30" class="edge">
<title>:feature:favorites&#45;&gt;:core</title>
<path fill="none" stroke="black" d="M585.57,-143.73C592.93,-125.13 606.06,-95.1 622.13,-72 629.84,-60.93 639.88,-49.97 649,-40.91"/>
<polygon fill="black" stroke="black" points="651.16,-43.69 655.94,-34.23 646.31,-38.64 651.16,-43.69"/>
</g>
<!-- :feature:favorites&#45;&gt;:domain -->
<g id="edge31" class="edge">
<title>:feature:favorites&#45;&gt;:domain</title>
<path fill="none" stroke="black" d="M601.41,-144.41C614.11,-134.95 630.19,-122.98 643.9,-112.77"/>
<polygon fill="black" stroke="black" points="645.8,-115.72 651.73,-106.94 641.62,-110.11 645.8,-115.72"/>
</g>
</g>
</svg>
